<svg width="24" height="24" viewBox="0 0 24 24" fill="none" xmlns="http://www.w3.org/2000/svg">
<path d="M12 0C14.2647 0 16.4396 0.629548 18.3232 1.79941C18.8862 2.14907 19.0592 2.88893 18.7095 3.45192C18.3599 4.01492 17.62 4.18786 17.057 3.8382C15.5509 2.90276 13.814 2.4 12 2.4C6.69807 2.4 2.4 6.69807 2.4 12C2.4 17.3019 6.69807 21.6 12 21.6C17.3019 21.6 21.6 17.3019 21.6 12C21.6 11.2535 21.515 10.519 21.3484 9.80604C21.1976 9.16069 21.5986 8.51528 22.2439 8.36448C22.8893 8.21369 23.5347 8.61461 23.6855 9.25997C23.8938 10.1517 24 11.0694 24 12C24 18.6274 18.6274 24 12 24C5.37258 24 0 18.6274 0 12C0 5.37258 5.37258 0 12 0ZM22.5685 2.69118C23.0318 3.09067 23.1152 3.76704 22.7849 4.26351L22.6937 4.38362L11.606 17.2428L5.22406 11.833C4.71851 11.4045 4.65608 10.6473 5.08462 10.1417C5.4802 9.67506 6.15584 9.58597 6.65507 9.91208L6.77594 10.0023L11.3412 13.872L20.876 2.81638C21.3088 2.31446 22.0665 2.25841 22.5685 2.69118Z" fill="url(#paint0_linear_40000135_15914)"/>
<defs>
<linearGradient id="paint0_linear_40000135_15914" x1="24.6806" y1="33.2308" x2="-2.00493" y2="32.4818" gradientUnits="userSpaceOnUse">
<stop stop-color="#3375F6"/>
<stop offset="1" stop-color="#E369F8"/>
</linearGradient>
</defs>
</svg>
