<svg width="37" height="80" viewBox="0 0 37 80" fill="none" xmlns="http://www.w3.org/2000/svg">
<path fill-rule="evenodd" clip-rule="evenodd" d="M0.273071 0C12.169 0 21.8129 9.62803 21.8129 21.5057C21.8129 29.5923 28.3782 36.1473 36.4774 36.1473V43.0115C28.3781 43.0115 21.8129 49.5664 21.8129 57.6529C21.8129 69.5306 12.169 79.1586 0.273071 79.1586V72.2944C8.37239 72.2944 14.938 65.7394 14.938 57.6529C14.938 49.5665 8.37242 43.0115 0.273071 43.0115V36.1473C8.37239 36.1473 14.938 29.5922 14.938 21.5057C14.938 13.4193 8.37239 6.86421 0.273071 6.86421V0ZM18.3754 33.1656C16.7143 35.7311 14.521 37.9209 11.9515 39.5794C14.521 41.2378 16.7143 43.4276 18.3754 45.993C20.0364 43.4276 22.2296 41.2378 24.7991 39.5794C22.2296 37.9209 20.0364 35.7311 18.3754 33.1656Z" fill="url(#paint0_linear_499_9426)"/>
<defs>
<linearGradient id="paint0_linear_499_9426" x1="18.3752" y1="0" x2="18.3752" y2="79.1586" gradientUnits="userSpaceOnUse">
<stop stop-color="#3375F6"/>
<stop offset="1" stop-color="#E369F8"/>
</linearGradient>
</defs>
</svg>
